<svg width="160" height="31" viewBox="0 0 160 31" fill="none" xmlns="http://www.w3.org/2000/svg">
<path d="M15.498 8L5.89805 17.3L1.49805 13V17.7L5.99805 22L15.498 12.7V8Z" fill="#08AF00"/>
<path d="M37.58 21.68C36.704 21.68 35.924 21.548 35.24 21.284C34.568 21.02 34.028 20.648 33.62 20.168C33.212 19.688 32.972 19.13 32.9 18.494C32.888 18.386 32.918 18.302 32.99 18.242C33.074 18.17 33.17 18.134 33.278 18.134H34.232C34.352 18.134 34.442 18.164 34.502 18.224C34.562 18.272 34.616 18.362 34.664 18.494C34.796 18.95 35.096 19.34 35.564 19.664C36.032 19.988 36.692 20.15 37.544 20.15C38.528 20.15 39.29 19.814 39.83 19.142C40.382 18.458 40.658 17.522 40.658 16.334V15.92H36.284C36.164 15.92 36.062 15.878 35.978 15.794C35.906 15.71 35.87 15.608 35.87 15.488V14.876C35.87 14.744 35.906 14.642 35.978 14.57C36.062 14.486 36.164 14.444 36.284 14.444H40.658V14.084C40.658 12.764 40.388 11.798 39.848 11.186C39.308 10.562 38.54 10.25 37.544 10.25C36.692 10.25 36.032 10.418 35.564 10.754C35.096 11.078 34.802 11.468 34.682 11.924C34.634 12.056 34.58 12.152 34.52 12.212C34.472 12.26 34.382 12.284 34.25 12.284H33.296C33.188 12.284 33.092 12.248 33.008 12.176C32.936 12.104 32.906 12.014 32.918 11.906C32.99 11.258 33.23 10.7 33.638 10.232C34.046 9.752 34.586 9.38 35.258 9.116C35.93 8.852 36.704 8.72 37.58 8.72C38.492 8.72 39.308 8.9 40.028 9.26C40.76 9.62 41.336 10.196 41.756 10.988C42.188 11.78 42.422 12.818 42.458 14.102C42.47 14.39 42.476 14.648 42.476 14.876C42.476 15.104 42.476 15.332 42.476 15.56C42.476 15.776 42.47 16.022 42.458 16.298C42.422 17.594 42.188 18.638 41.756 19.43C41.336 20.21 40.766 20.78 40.046 21.14C39.326 21.5 38.504 21.68 37.58 21.68ZM47.7253 21.5C47.6053 21.5 47.5033 21.464 47.4193 21.392C47.3473 21.308 47.3113 21.206 47.3113 21.086V13.58H44.1793C44.0593 13.58 43.9573 13.544 43.8733 13.472C43.8013 13.388 43.7653 13.286 43.7653 13.166V12.554C43.7653 12.434 43.8013 12.338 43.8733 12.266C43.9573 12.182 44.0593 12.14 44.1793 12.14H52.0993C52.2193 12.14 52.3153 12.182 52.3873 12.266C52.4713 12.338 52.5133 12.434 52.5133 12.554V13.166C52.5133 13.286 52.4713 13.388 52.3873 13.472C52.3153 13.544 52.2193 13.58 52.0993 13.58H48.9673V21.086C48.9673 21.206 48.9313 21.308 48.8593 21.392C48.7873 21.464 48.6853 21.5 48.5533 21.5H47.7253ZM57.9082 21.68C56.9962 21.68 56.2342 21.506 55.6222 21.158C55.0102 20.81 54.5422 20.33 54.2182 19.718C53.8942 19.094 53.7142 18.386 53.6782 17.594C53.6662 17.39 53.6602 17.132 53.6602 16.82C53.6602 16.496 53.6662 16.238 53.6782 16.046C53.7142 15.242 53.8942 14.534 54.2182 13.922C54.5542 13.31 55.0282 12.83 55.6402 12.482C56.2522 12.134 57.0082 11.96 57.9082 11.96C58.8082 11.96 59.5642 12.134 60.1762 12.482C60.7882 12.83 61.2562 13.31 61.5802 13.922C61.9162 14.534 62.1022 15.242 62.1382 16.046C62.1502 16.238 62.1562 16.496 62.1562 16.82C62.1562 17.132 62.1502 17.39 62.1382 17.594C62.1022 18.386 61.9222 19.094 61.5982 19.718C61.2742 20.33 60.8062 20.81 60.1942 21.158C59.5822 21.506 58.8202 21.68 57.9082 21.68ZM57.9082 20.294C58.6522 20.294 59.2462 20.06 59.6902 19.592C60.1342 19.112 60.3742 18.416 60.4102 17.504C60.4222 17.324 60.4282 17.096 60.4282 16.82C60.4282 16.544 60.4222 16.316 60.4102 16.136C60.3742 15.224 60.1342 14.534 59.6902 14.066C59.2462 13.586 58.6522 13.346 57.9082 13.346C57.1642 13.346 56.5642 13.586 56.1082 14.066C55.6642 14.534 55.4302 15.224 55.4062 16.136C55.3942 16.316 55.3882 16.544 55.3882 16.82C55.3882 17.096 55.3942 17.324 55.4062 17.504C55.4302 18.416 55.6642 19.112 56.1082 19.592C56.5642 20.06 57.1642 20.294 57.9082 20.294ZM72.7822 21.68C71.8582 21.68 71.0842 21.506 70.4602 21.158C69.8482 20.798 69.3802 20.294 69.0562 19.646C68.7442 18.986 68.5762 18.224 68.5522 17.36C68.5402 17 68.5342 16.64 68.5342 16.28C68.5342 15.92 68.5402 15.56 68.5522 15.2C68.5522 14.108 68.6422 13.202 68.8222 12.482C69.0022 11.762 69.2722 11.174 69.6322 10.718C70.0042 10.25 70.4722 9.866 71.0362 9.566C71.6002 9.266 72.2662 9.008 73.0342 8.792C73.8022 8.564 74.6782 8.324 75.6622 8.072C75.7702 8.048 75.8722 8.066 75.9682 8.126C76.0762 8.186 76.1362 8.27 76.1482 8.378L76.2922 9.116C76.3162 9.224 76.2982 9.32 76.2382 9.404C76.1902 9.488 76.1122 9.542 76.0042 9.566C75.1042 9.794 74.3182 9.992 73.6462 10.16C72.9742 10.328 72.4102 10.526 71.9542 10.754C71.4982 10.97 71.1322 11.252 70.8562 11.6C70.5802 11.948 70.3882 12.41 70.2802 12.986C70.1842 13.562 70.1542 14.3 70.1902 15.2L69.7942 15.038C69.8542 14.594 70.0402 14.192 70.3522 13.832C70.6762 13.46 71.0782 13.16 71.5582 12.932C72.0382 12.704 72.5482 12.59 73.0882 12.59C73.9162 12.59 74.6122 12.764 75.1762 13.112C75.7522 13.46 76.1902 13.934 76.4902 14.534C76.8022 15.134 76.9762 15.824 77.0122 16.604C77.0362 17.012 77.0362 17.366 77.0122 17.666C76.9762 18.446 76.7962 19.142 76.4722 19.754C76.1482 20.354 75.6802 20.828 75.0682 21.176C74.4562 21.512 73.6942 21.68 72.7822 21.68ZM72.7822 20.348C73.5382 20.348 74.1382 20.114 74.5822 19.646C75.0262 19.178 75.2602 18.494 75.2842 17.594C75.2962 17.474 75.3022 17.336 75.3022 17.18C75.3022 17.024 75.2962 16.862 75.2842 16.694C75.2602 15.782 75.0262 15.092 74.5822 14.624C74.1502 14.156 73.6042 13.922 72.9442 13.922C72.1882 13.922 71.5642 14.156 71.0722 14.624C70.5802 15.092 70.3162 15.782 70.2802 16.694C70.2682 16.862 70.2622 17.024 70.2622 17.18C70.2622 17.336 70.2682 17.474 70.2802 17.594C70.3162 18.494 70.5562 19.178 71.0002 19.646C71.4442 20.114 72.0382 20.348 72.7822 20.348ZM83.0072 21.68C81.7712 21.68 80.7872 21.302 80.0552 20.546C79.3232 19.778 78.9212 18.734 78.8492 17.414C78.8372 17.258 78.8312 17.06 78.8312 16.82C78.8312 16.568 78.8372 16.364 78.8492 16.208C78.8972 15.356 79.0952 14.612 79.4432 13.976C79.7912 13.328 80.2652 12.83 80.8652 12.482C81.4772 12.134 82.1912 11.96 83.0072 11.96C83.9192 11.96 84.6812 12.152 85.2932 12.536C85.9172 12.92 86.3912 13.466 86.7152 14.174C87.0392 14.882 87.2012 15.71 87.2012 16.658V16.964C87.2012 17.096 87.1592 17.198 87.0752 17.27C87.0032 17.342 86.9072 17.378 86.7872 17.378H80.5592C80.5592 17.39 80.5592 17.414 80.5592 17.45C80.5592 17.486 80.5592 17.516 80.5592 17.54C80.5832 18.032 80.6912 18.494 80.8832 18.926C81.0752 19.346 81.3512 19.688 81.7112 19.952C82.0712 20.216 82.5032 20.348 83.0072 20.348C83.4392 20.348 83.7992 20.282 84.0872 20.15C84.3752 20.018 84.6092 19.874 84.7892 19.718C84.9692 19.55 85.0892 19.424 85.1492 19.34C85.2572 19.184 85.3412 19.094 85.4012 19.07C85.4612 19.034 85.5572 19.016 85.6892 19.016H86.5532C86.6732 19.016 86.7692 19.052 86.8412 19.124C86.9252 19.184 86.9612 19.274 86.9492 19.394C86.9372 19.574 86.8412 19.796 86.6612 20.06C86.4812 20.312 86.2232 20.564 85.8872 20.816C85.5512 21.068 85.1432 21.278 84.6632 21.446C84.1832 21.602 83.6312 21.68 83.0072 21.68ZM80.5592 16.136H85.4912V16.082C85.4912 15.542 85.3892 15.062 85.1852 14.642C84.9932 14.222 84.7112 13.892 84.3392 13.652C83.9672 13.4 83.5232 13.274 83.0072 13.274C82.4912 13.274 82.0472 13.4 81.6752 13.652C81.3152 13.892 81.0392 14.222 80.8472 14.642C80.6552 15.062 80.5592 15.542 80.5592 16.082V16.136ZM93.1335 21.68C92.2815 21.68 91.5435 21.518 90.9195 21.194C90.3075 20.858 89.8335 20.384 89.4975 19.772C89.1615 19.148 88.9815 18.404 88.9575 17.54C88.9455 17.36 88.9395 17.12 88.9395 16.82C88.9395 16.52 88.9455 16.28 88.9575 16.1C88.9815 15.236 89.1615 14.498 89.4975 13.886C89.8335 13.262 90.3075 12.788 90.9195 12.464C91.5435 12.128 92.2815 11.96 93.1335 11.96C93.8295 11.96 94.4235 12.056 94.9155 12.248C95.4195 12.44 95.8335 12.686 96.1575 12.986C96.4815 13.286 96.7215 13.61 96.8775 13.958C97.0455 14.306 97.1355 14.636 97.1475 14.948C97.1595 15.068 97.1235 15.164 97.0395 15.236C96.9555 15.308 96.8535 15.344 96.7335 15.344H95.8695C95.7495 15.344 95.6595 15.32 95.5995 15.272C95.5395 15.212 95.4795 15.116 95.4195 14.984C95.2035 14.396 94.9095 13.982 94.5375 13.742C94.1655 13.502 93.7035 13.382 93.1515 13.382C92.4315 13.382 91.8435 13.604 91.3875 14.048C90.9435 14.492 90.7035 15.206 90.6675 16.19C90.6555 16.622 90.6555 17.042 90.6675 17.45C90.7035 18.446 90.9435 19.166 91.3875 19.61C91.8435 20.042 92.4315 20.258 93.1515 20.258C93.7035 20.258 94.1655 20.138 94.5375 19.898C94.9095 19.658 95.2035 19.244 95.4195 18.656C95.4795 18.524 95.5395 18.434 95.5995 18.386C95.6595 18.326 95.7495 18.296 95.8695 18.296H96.7335C96.8535 18.296 96.9555 18.332 97.0395 18.404C97.1235 18.476 97.1595 18.572 97.1475 18.692C97.1355 18.944 97.0815 19.202 96.9855 19.466C96.8895 19.73 96.7335 20 96.5175 20.276C96.3135 20.54 96.0555 20.78 95.7435 20.996C95.4315 21.2 95.0535 21.368 94.6095 21.5C94.1775 21.62 93.6855 21.68 93.1335 21.68ZM99.6991 21.5C99.5791 21.5 99.4771 21.464 99.3931 21.392C99.3211 21.308 99.2851 21.206 99.2851 21.086V12.554C99.2851 12.434 99.3211 12.338 99.3931 12.266C99.4771 12.182 99.5791 12.14 99.6991 12.14H106.845C106.965 12.14 107.061 12.182 107.133 12.266C107.217 12.338 107.259 12.434 107.259 12.554V21.086C107.259 21.206 107.217 21.308 107.133 21.392C107.061 21.464 106.965 21.5 106.845 21.5H105.981C105.861 21.5 105.765 21.464 105.693 21.392C105.621 21.308 105.585 21.206 105.585 21.086V13.58H100.959V21.086C100.959 21.206 100.923 21.308 100.851 21.392C100.779 21.464 100.683 21.5 100.563 21.5H99.6991ZM109.487 21.5C109.367 21.5 109.265 21.458 109.181 21.374C109.097 21.29 109.055 21.188 109.055 21.068V20.402C109.055 20.15 109.181 20.018 109.433 20.006C109.805 19.994 110.117 19.82 110.369 19.484C110.621 19.136 110.813 18.59 110.945 17.846C111.077 17.09 111.143 16.094 111.143 14.858V12.554C111.143 12.434 111.179 12.338 111.251 12.266C111.335 12.182 111.437 12.14 111.557 12.14H117.281C117.401 12.14 117.497 12.182 117.569 12.266C117.653 12.338 117.695 12.434 117.695 12.554V21.086C117.695 21.206 117.653 21.308 117.569 21.392C117.497 21.464 117.401 21.5 117.281 21.5H116.417C116.297 21.5 116.201 21.464 116.129 21.392C116.057 21.308 116.021 21.206 116.021 21.086V13.58H112.781V15.056C112.781 16.208 112.715 17.198 112.583 18.026C112.451 18.842 112.247 19.508 111.971 20.024C111.707 20.528 111.365 20.9 110.945 21.14C110.537 21.38 110.051 21.5 109.487 21.5ZM122.989 21.68C122.389 21.68 121.843 21.56 121.351 21.32C120.859 21.08 120.463 20.756 120.163 20.348C119.863 19.94 119.713 19.478 119.713 18.962C119.713 18.134 120.049 17.474 120.721 16.982C121.393 16.49 122.269 16.166 123.349 16.01L126.031 15.632V15.11C126.031 14.534 125.863 14.084 125.527 13.76C125.203 13.436 124.669 13.274 123.925 13.274C123.385 13.274 122.947 13.382 122.611 13.598C122.287 13.814 122.059 14.09 121.927 14.426C121.855 14.606 121.729 14.696 121.549 14.696H120.739C120.607 14.696 120.505 14.66 120.433 14.588C120.373 14.504 120.343 14.408 120.343 14.3C120.343 14.12 120.409 13.898 120.541 13.634C120.685 13.37 120.901 13.112 121.189 12.86C121.477 12.608 121.843 12.398 122.287 12.23C122.743 12.05 123.295 11.96 123.943 11.96C124.663 11.96 125.269 12.056 125.761 12.248C126.253 12.428 126.637 12.674 126.913 12.986C127.201 13.298 127.405 13.652 127.525 14.048C127.657 14.444 127.723 14.846 127.723 15.254V21.086C127.723 21.206 127.681 21.308 127.597 21.392C127.525 21.464 127.429 21.5 127.309 21.5H126.481C126.349 21.5 126.247 21.464 126.175 21.392C126.103 21.308 126.067 21.206 126.067 21.086V20.312C125.911 20.528 125.701 20.744 125.437 20.96C125.173 21.164 124.843 21.338 124.447 21.482C124.051 21.614 123.565 21.68 122.989 21.68ZM123.367 20.33C123.859 20.33 124.309 20.228 124.717 20.024C125.125 19.808 125.443 19.478 125.671 19.034C125.911 18.59 126.031 18.032 126.031 17.36V16.856L123.943 17.162C123.091 17.282 122.449 17.486 122.017 17.774C121.585 18.05 121.369 18.404 121.369 18.836C121.369 19.172 121.465 19.454 121.657 19.682C121.861 19.898 122.113 20.06 122.413 20.168C122.725 20.276 123.043 20.33 123.367 20.33ZM133.173 21.5C133.053 21.5 132.951 21.464 132.867 21.392C132.795 21.308 132.759 21.206 132.759 21.086V13.58H129.627C129.507 13.58 129.405 13.544 129.321 13.472C129.249 13.388 129.213 13.286 129.213 13.166V12.554C129.213 12.434 129.249 12.338 129.321 12.266C129.405 12.182 129.507 12.14 129.627 12.14H137.547C137.667 12.14 137.763 12.182 137.835 12.266C137.919 12.338 137.961 12.434 137.961 12.554V13.166C137.961 13.286 137.919 13.388 137.835 13.472C137.763 13.544 137.667 13.58 137.547 13.58H134.415V21.086C134.415 21.206 134.379 21.308 134.307 21.392C134.235 21.464 134.133 21.5 134.001 21.5H133.173ZM139.935 21.5C139.815 21.5 139.713 21.464 139.629 21.392C139.557 21.308 139.521 21.206 139.521 21.086V12.554C139.521 12.434 139.557 12.338 139.629 12.266C139.713 12.182 139.815 12.14 139.935 12.14H140.799C140.919 12.14 141.015 12.182 141.087 12.266C141.159 12.338 141.195 12.434 141.195 12.554V16.01H146.109V12.554C146.109 12.434 146.145 12.338 146.217 12.266C146.301 12.182 146.403 12.14 146.523 12.14H147.369C147.489 12.14 147.585 12.182 147.657 12.266C147.741 12.338 147.783 12.434 147.783 12.554V21.086C147.783 21.206 147.741 21.308 147.657 21.392C147.585 21.464 147.489 21.5 147.369 21.5H146.523C146.403 21.5 146.301 21.464 146.217 21.392C146.145 21.308 146.109 21.206 146.109 21.086V17.45H141.195V21.086C141.195 21.206 141.159 21.308 141.087 21.392C141.015 21.464 140.919 21.5 140.799 21.5H139.935ZM154.324 21.68C153.412 21.68 152.65 21.506 152.038 21.158C151.426 20.81 150.958 20.33 150.634 19.718C150.31 19.094 150.13 18.386 150.094 17.594C150.082 17.39 150.076 17.132 150.076 16.82C150.076 16.496 150.082 16.238 150.094 16.046C150.13 15.242 150.31 14.534 150.634 13.922C150.97 13.31 151.444 12.83 152.056 12.482C152.668 12.134 153.424 11.96 154.324 11.96C155.224 11.96 155.98 12.134 156.592 12.482C157.204 12.83 157.672 13.31 157.996 13.922C158.332 14.534 158.518 15.242 158.554 16.046C158.566 16.238 158.572 16.496 158.572 16.82C158.572 17.132 158.566 17.39 158.554 17.594C158.518 18.386 158.338 19.094 158.014 19.718C157.69 20.33 157.222 20.81 156.61 21.158C155.998 21.506 155.236 21.68 154.324 21.68ZM154.324 20.294C155.068 20.294 155.662 20.06 156.106 19.592C156.55 19.112 156.79 18.416 156.826 17.504C156.838 17.324 156.844 17.096 156.844 16.82C156.844 16.544 156.838 16.316 156.826 16.136C156.79 15.224 156.55 14.534 156.106 14.066C155.662 13.586 155.068 13.346 154.324 13.346C153.58 13.346 152.98 13.586 152.524 14.066C152.08 14.534 151.846 15.224 151.822 16.136C151.81 16.316 151.804 16.544 151.804 16.82C151.804 17.096 151.81 17.324 151.822 17.504C151.846 18.416 152.08 19.112 152.524 19.592C152.98 20.06 153.58 20.294 154.324 20.294Z" fill="#444444"/>
</svg>
